<svg xmlns="http://www.w3.org/2000/svg" version="1.1" xmlns:xlink="http://www.w3.org/1999/xlink" xmlns:svgjs="http://svgjs.dev/svgjs" width="1500" height="935" viewBox="0 0 1500 935"><g transform="matrix(1,0,0,1,-0.9090909090909918,0.3785425101214628)"><svg viewBox="0 0 396 247" data-background-color="#0080ff" preserveAspectRatio="xMidYMid meet" height="935" width="1500" xmlns="http://www.w3.org/2000/svg" xmlns:xlink="http://www.w3.org/1999/xlink"><g id="tight-bounds" transform="matrix(1,0,0,1,0.2400000000000091,-0.09999999999999432)"><svg viewBox="0 0 395.52 247.2" height="247.2" width="395.52"><g><svg></svg></g><g><svg viewBox="0 0 395.52 247.2" height="247.2" width="395.52"><g transform="matrix(1,0,0,1,75.54432,76.99004695414416)"><svg viewBox="0 0 244.43135999999998 93.21990609171166" height="93.21990609171166" width="244.43135999999998"><g><svg viewBox="0 0 244.43135999999998 93.21990609171166" height="93.21990609171166" width="244.43135999999998"><g><svg viewBox="0 0 244.43135999999998 93.21990609171166" height="93.21990609171166" width="244.43135999999998"><g><svg viewBox="0 0 244.43135999999998 93.21990609171166" height="93.21990609171166" width="244.43135999999998"><g id="textblocktransform"><svg viewBox="0 0 244.43135999999998 93.21990609171166" height="93.21990609171166" width="244.43135999999998" id="textblock"><g><svg viewBox="0 0 244.43135999999998 60.758886933154166" height="60.758886933154166" width="244.43135999999998"><g transform="matrix(1,0,0,1,0,0)"><svg width="244.43135999999998" viewBox="-0.2 -36.5 148.83999999999997 37" height="60.758886933154166" data-palette-color="#ffffff"><path d="M-0.2 0L7.55-36.5 14.25-36.5 11-21.35Q12.9-23.85 15.55-25.25 18.2-26.65 21-26.65L21-26.65Q23.35-26.65 24.68-25.83 26-25 26.58-23.63 27.15-22.25 27.15-20.5L27.15-20.5Q27.15-19.5 27.03-18.45 26.9-17.4 26.65-16.35L26.65-16.35 23.2 0 16.5 0 19.6-14.7Q19.75-15.4 19.83-16 19.9-16.6 19.9-17.15L19.9-17.15Q19.9-19 19.1-19.88 18.3-20.75 16.85-20.75L16.85-20.75Q15.8-20.75 14.43-20.05 13.05-19.35 11.8-18.13 10.55-16.9 9.75-15.3L9.75-15.3 6.5 0-0.2 0ZM40.6 0.5L40.6 0.5Q37.3 0.5 34.87-0.93 32.45-2.35 31.17-4.88 29.9-7.4 29.9-10.6L29.9-10.6Q29.9-13.85 31.15-16.75 32.4-19.65 34.65-21.88 36.9-24.1 39.9-25.38 42.9-26.65 46.4-26.65L46.4-26.65Q49.25-26.65 51.35-25.8 53.45-24.95 54.6-23.33 55.75-21.7 55.75-19.35L55.75-19.35Q55.75-15.2 51.97-13.05 48.2-10.9 40.65-10.9L40.65-10.9Q39.15-10.9 37.4-10.98 35.65-11.05 33.6-11.25L33.6-11.25 34.45-15.45Q36.25-15.3 37.75-15.23 39.25-15.15 40.7-15.15L40.7-15.15Q43.95-15.15 45.82-15.6 47.7-16.05 48.55-16.9 49.4-17.75 49.4-18.9L49.4-18.9Q49.4-19.9 48.9-20.53 48.4-21.15 47.52-21.48 46.65-21.8 45.45-21.8L45.45-21.8Q43.5-21.8 41.87-20.88 40.25-19.95 39.05-18.35 37.85-16.75 37.2-14.7 36.55-12.65 36.55-10.35L36.55-10.35Q36.55-8.65 37.12-7.28 37.7-5.9 38.85-5.15 40-4.4 41.8-4.4L41.8-4.4Q43.8-4.4 45.57-5.35 47.35-6.3 48.4-8L48.4-8 53.7-6.35Q52.4-4.35 50.3-2.8 48.2-1.25 45.7-0.38 43.2 0.5 40.6 0.5ZM66.7 0.5L66.7 0.5Q63.8 0.5 61.72-0.93 59.65-2.35 58.52-4.78 57.4-7.2 57.4-10.25L57.4-10.25Q57.4-13.5 58.55-16.45 59.7-19.4 61.72-21.7 63.75-24 66.32-25.33 68.9-26.65 71.75-26.65L71.75-26.65Q74.45-26.65 76.34-25.23 78.25-23.8 78.95-21.6L78.95-21.6 79.95-26.1 86.65-26.1 82.75-7.7Q82.7-7.45 82.65-7.23 82.59-7 82.59-6.8L82.59-6.8Q82.59-5.75 83.8-5.7L83.8-5.7 82.59 0Q81.7 0.15 81.02 0.25 80.34 0.35 79.84 0.35L79.84 0.35Q78.05 0.35 77.05-0.4 76.05-1.15 76.05-2.65L76.05-2.65Q76.05-2.85 76.09-3.13 76.15-3.4 76.2-3.78 76.25-4.15 76.34-4.55L76.34-4.55Q74.45-2.1 71.84-0.8 69.25 0.5 66.7 0.5ZM69.7-5.2L69.7-5.2Q70.55-5.2 71.5-5.53 72.45-5.85 73.37-6.43 74.3-7 75.09-7.83 75.9-8.65 76.45-9.6L76.45-9.6 77.75-15.85Q77.59-17.3 76.84-18.45 76.09-19.6 75-20.28 73.9-20.95 72.65-20.95L72.65-20.95Q71.05-20.95 69.57-20.13 68.09-19.3 66.95-17.93 65.8-16.55 65.12-14.83 64.45-13.1 64.45-11.3L64.45-11.3Q64.45-9.6 65.09-8.2 65.75-6.8 66.92-6 68.09-5.2 69.7-5.2ZM93.89 0.4L93.89 0.4Q91.39 0.4 90.02-0.78 88.64-1.95 88.64-4.15L88.64-4.15Q88.64-4.6 88.72-5.08 88.79-5.55 88.84-6.05L88.84-6.05 95.34-36.5 101.99-36.5 96.04-8.4Q95.99-8.15 95.97-7.9 95.94-7.65 95.94-7.4L95.94-7.4Q95.94-5.35 97.99-5.35L97.99-5.35Q98.54-5.35 99.27-5.55 99.99-5.75 100.64-6.05L100.64-6.05 100.44-0.95Q99.04-0.3 97.19 0.05 95.34 0.4 93.89 0.4ZM105.19-4.15L105.19-4.15Q105.19-4.6 105.24-5.05 105.29-5.5 105.39-6L105.39-6 108.59-21.05 105.34-21.05 106.44-26.2 109.64-26.2 111.44-34.7 118.14-34.7 116.34-26.2 121.59-26.2 120.49-21.05 115.29-21.05 112.54-8.25Q112.49-8.05 112.47-7.85 112.44-7.65 112.44-7.45L112.44-7.45Q112.44-6.5 112.99-6.1 113.54-5.7 114.34-5.7L114.34-5.7Q114.99-5.7 115.67-5.85 116.34-6 116.94-6.25 117.54-6.5 117.99-6.65L117.99-6.65 118.19-1.35Q117.19-0.9 115.94-0.48 114.69-0.05 113.34 0.2 111.99 0.45 110.64 0.45L110.64 0.45Q108.29 0.45 106.74-0.63 105.19-1.7 105.19-4.15ZM121.29 0L129.04-36.5 135.74-36.5 132.49-21.35Q134.39-23.85 137.04-25.25 139.69-26.65 142.49-26.65L142.49-26.65Q144.84-26.65 146.16-25.83 147.49-25 148.06-23.63 148.64-22.25 148.64-20.5L148.64-20.5Q148.64-19.5 148.51-18.45 148.39-17.4 148.14-16.35L148.14-16.35 144.69 0 137.99 0 141.09-14.7Q141.24-15.4 141.31-16 141.39-16.6 141.39-17.15L141.39-17.15Q141.39-19 140.59-19.88 139.79-20.75 138.34-20.75L138.34-20.75Q137.29-20.75 135.91-20.05 134.54-19.35 133.29-18.13 132.04-16.9 131.24-15.3L131.24-15.3 127.99 0 121.29 0Z" opacity="1" transform="matrix(1,0,0,1,0,0)" fill="#ffffff" class="wordmark-text-0" data-fill-palette-color="primary" id="text-0"></path></svg></g></svg></g><g transform="matrix(1,0,0,1,0,75.10260192478547)"><svg viewBox="0 0 244.43135999999998 18.11730416692619" height="18.11730416692619" width="244.43135999999998"><g transform="matrix(1,0,0,1,0,0)"><svg width="244.43135999999998" viewBox="1.25 -36 642.14 47.6" height="18.11730416692619" data-palette-color="#ffffff"><path d="M7.65 0L1.25 0 7.4-35 15-35 22.25-12.8 37.15-35 44.75-35 38.6 0 32.2 0 36.45-24.15 23.35-5 18.3-5 11.9-24.15 7.65 0ZM53.6 0.6L53.6 0.6Q49.4 0.6 47.45-1.33 45.5-3.25 45.5-5.95L45.5-5.95Q45.5-9.95 48.85-12.3 52.2-14.65 57.8-14.65L57.8-14.65 64.1-14.65 64.2-15.25Q64.25-15.55 64.27-15.88 64.3-16.2 64.3-16.45L64.3-16.45Q64.3-18.35 63.1-19.28 61.9-20.2 60.05-20.2L60.05-20.2Q58.1-20.2 56.47-19.28 54.85-18.35 54.15-16.55L54.15-16.55 47.9-16.55Q48.65-19.25 50.52-21.25 52.4-23.25 55.1-24.33 57.8-25.4 60.95-25.4L60.95-25.4Q65.55-25.4 68.17-23.35 70.8-21.3 70.8-17.45L70.8-17.45Q70.8-16.95 70.75-16.38 70.7-15.8 70.6-15.25L70.6-15.25 67.9 0 62.2 0 62.45-3.85Q61-1.95 58.82-0.68 56.65 0.6 53.6 0.6ZM55.95-4.4L55.95-4.4Q58.7-4.4 60.52-6.2 62.35-8 63.2-10.65L63.2-10.65 57.8-10.65Q55.3-10.65 53.85-9.65 52.4-8.65 52.4-6.9L52.4-6.9Q52.4-5.65 53.37-5.03 54.35-4.4 55.95-4.4ZM80.4 0L74 0 80.4-36 86.8-36 83.05-14.9 93.8-24.8 101.75-24.8 89.1-13.8 98.95 0 91.35 0 82.7-12.9 80.4 0ZM111.99-28.5L111.99-28.5Q110.24-28.5 109.12-29.58 107.99-30.65 107.99-32.25L107.99-32.25Q107.99-33.85 109.12-34.93 110.24-36 111.99-36L111.99-36Q113.74-36 114.87-34.93 115.99-33.85 115.99-32.25L115.99-32.25Q115.99-30.65 114.87-29.58 113.74-28.5 111.99-28.5ZM109.49 0L103.09 0 107.44-24.8 113.84-24.8 109.49 0ZM122.74 0L116.34 0 120.69-24.8 126.34-24.8 126.19-20.7Q127.74-22.85 130.09-24.13 132.44-25.4 135.34-25.4L135.34-25.4Q139.19-25.4 141.31-23.28 143.44-21.15 143.44-17.15L143.44-17.15Q143.44-15.75 143.14-14L143.14-14 140.64 0 134.24 0 136.64-13.4Q136.69-14 136.77-14.53 136.84-15.05 136.84-15.5L136.84-15.5Q136.84-20 132.39-20L132.39-20Q129.74-20 127.69-18.13 125.64-16.25 125.04-13L125.04-13 122.74 0ZM158.49-7.4L158.49-7.4Q156.69-7.4 155.19-7.8L155.19-7.8 153.29-6.2Q154.19-5.65 155.54-5.33 156.89-5 159.39-4.8L159.39-4.8Q164.14-4.4 166.14-2.63 168.14-0.85 168.14 1.9L168.14 1.9Q168.14 4.75 166.46 6.93 164.79 9.1 161.89 10.35 158.99 11.6 155.24 11.6L155.24 11.6Q150.44 11.6 147.54 9.85 144.64 8.1 144.64 4.65L144.64 4.65Q144.64 2.5 145.81 0.73 146.99-1.05 149.09-2.45L149.09-2.45Q147.44-3.3 146.54-4.35L146.54-4.35 146.74-5.5 151.69-9.85Q149.79-11.8 149.79-14.75L149.79-14.75Q149.79-17.7 151.39-20.13 152.99-22.55 155.66-23.98 158.34-25.4 161.64-25.4L161.64-25.4Q163.74-25.4 165.44-24.8L165.44-24.8 174.84-24.8 174.14-20.9 169.84-20.6Q170.24-19.4 170.24-18.05L170.24-18.05Q170.24-15.05 168.66-12.65 167.09-10.25 164.41-8.83 161.74-7.4 158.49-7.4ZM159.34-12.25L159.34-12.25Q161.69-12.25 163.21-13.65 164.74-15.05 164.74-17.25L164.74-17.25Q164.74-18.8 163.64-19.65 162.54-20.5 160.79-20.5L160.79-20.5Q158.39-20.5 156.86-19.07 155.34-17.65 155.34-15.5L155.34-15.5Q155.34-13.95 156.41-13.1 157.49-12.25 159.34-12.25ZM150.69 3.4L150.69 3.4Q150.69 5.05 152.16 5.9 153.64 6.75 156.04 6.75L156.04 6.75Q158.59 6.75 160.36 5.68 162.14 4.6 162.14 2.6L162.14 2.6Q162.14 1.45 161.26 0.6 160.39-0.25 157.84-0.4L157.84-0.4Q155.79-0.55 153.99-0.9L153.99-0.9Q152.29-0.05 151.49 1.07 150.69 2.2 150.69 3.4ZM194.48 0L188.08 0 194.23-35 207.18-35Q210.83-35 213.23-33.73 215.63-32.45 216.78-30.35 217.93-28.25 217.93-25.75L217.93-25.75Q217.93-21.95 216.08-19.23 214.23-16.5 210.96-15.03 207.68-13.55 203.43-13.55L203.43-13.55 196.88-13.55 194.48 0ZM199.73-29.8L197.78-18.75 203.93-18.75Q207.43-18.75 209.38-20.43 211.33-22.1 211.33-25.25L211.33-25.25Q211.33-27.3 210.03-28.55 208.73-29.8 205.88-29.8L205.88-29.8 199.73-29.8ZM226.78 0.6L226.78 0.6Q222.58 0.6 220.63-1.33 218.68-3.25 218.68-5.95L218.68-5.95Q218.68-9.95 222.03-12.3 225.38-14.65 230.98-14.65L230.98-14.65 237.28-14.65 237.38-15.25Q237.43-15.55 237.46-15.88 237.48-16.2 237.48-16.45L237.48-16.45Q237.48-18.35 236.28-19.28 235.08-20.2 233.23-20.2L233.23-20.2Q231.28-20.2 229.66-19.28 228.03-18.35 227.33-16.55L227.33-16.55 221.08-16.55Q221.83-19.25 223.71-21.25 225.58-23.25 228.28-24.33 230.98-25.4 234.13-25.4L234.13-25.4Q238.73-25.4 241.36-23.35 243.98-21.3 243.98-17.45L243.98-17.45Q243.98-16.95 243.93-16.38 243.88-15.8 243.78-15.25L243.78-15.25 241.08 0 235.38 0 235.63-3.85Q234.18-1.95 232.01-0.68 229.83 0.6 226.78 0.6ZM229.13-4.4L229.13-4.4Q231.88-4.4 233.71-6.2 235.53-8 236.38-10.65L236.38-10.65 230.98-10.65Q228.48-10.65 227.03-9.65 225.58-8.65 225.58-6.9L225.58-6.9Q225.58-5.65 226.56-5.03 227.53-4.4 229.13-4.4ZM262.23 0L257.83 0Q254.43 0 252.4-1.4 250.38-2.8 250.38-6.25L250.38-6.25Q250.38-7.35 250.63-8.7L250.63-8.7 252.53-19.45 248.53-19.45 249.48-24.8 253.48-24.8 255.38-31.45 261.08-31.45 259.88-24.8 266.63-24.8 265.63-19.45 258.98-19.45 257.03-8.65Q256.93-8.15 256.93-7.65L256.93-7.65Q256.93-6.45 257.6-5.95 258.28-5.45 259.83-5.45L259.83-5.45 263.23-5.45 262.23 0ZM276.98-28.5L276.98-28.5Q275.23-28.5 274.1-29.58 272.98-30.65 272.98-32.25L272.98-32.25Q272.98-33.85 274.1-34.93 275.23-36 276.98-36L276.98-36Q278.73-36 279.85-34.93 280.98-33.85 280.98-32.25L280.98-32.25Q280.98-30.65 279.85-29.58 278.73-28.5 276.98-28.5ZM274.48 0L268.08 0 272.43-24.8 278.83-24.8 274.48 0ZM293.22 0.6L293.22 0.6Q288.27 0.6 285.35-2.25 282.42-5.1 282.42-9.95L282.42-9.95Q282.42-13.1 283.52-15.9 284.62-18.7 286.67-20.83 288.72-22.95 291.55-24.18 294.37-25.4 297.77-25.4L297.77-25.4Q301.07-25.4 303.42-24.13 305.77-22.85 307.05-20.63 308.32-18.4 308.32-15.55L308.32-15.55Q308.32-14.35 308.1-13.08 307.87-11.8 307.57-10.85L307.57-10.85 288.72-10.85Q288.72-10.45 288.72-10L288.72-10Q288.72-7.5 290.22-6.08 291.72-4.65 294.12-4.65L294.12-4.65Q296.02-4.65 297.5-5.53 298.97-6.4 299.92-7.8L299.92-7.8 306.42-7.8Q305.27-5.4 303.3-3.5 301.32-1.6 298.75-0.5 296.17 0.6 293.22 0.6ZM296.92-20.2L296.92-20.2Q294.62-20.2 292.57-18.88 290.52-17.55 289.57-14.85L289.57-14.85 301.92-14.85Q301.97-15.25 301.97-15.4L301.97-15.4Q302.02-17.6 300.62-18.9 299.22-20.2 296.92-20.2ZM317.52 0L311.12 0 315.47-24.8 321.12-24.8 320.97-20.7Q322.52-22.85 324.87-24.13 327.22-25.4 330.12-25.4L330.12-25.4Q333.97-25.4 336.1-23.28 338.22-21.15 338.22-17.15L338.22-17.15Q338.22-15.75 337.92-14L337.92-14 335.42 0 329.02 0 331.42-13.4Q331.47-14 331.55-14.53 331.62-15.05 331.62-15.5L331.62-15.5Q331.62-20 327.17-20L327.17-20Q324.52-20 322.47-18.13 320.42-16.25 319.82-13L319.82-13 317.52 0ZM356.57 0L352.17 0Q348.77 0 346.74-1.4 344.72-2.8 344.72-6.25L344.72-6.25Q344.72-7.35 344.97-8.7L344.97-8.7 346.87-19.45 342.87-19.45 343.82-24.8 347.82-24.8 349.72-31.45 355.42-31.45 354.22-24.8 360.97-24.8 359.97-19.45 353.32-19.45 351.37-8.65Q351.27-8.15 351.27-7.65L351.27-7.65Q351.27-6.45 351.94-5.95 352.62-5.45 354.17-5.45L354.17-5.45 357.57-5.45 356.57 0ZM372.57 0.6L372.57 0.6Q369.17 0.6 366.79-0.55 364.42-1.7 363.22-3.7 362.02-5.7 362.22-8.25L362.22-8.25 368.62-8.25Q368.57-6.5 369.77-5.4 370.97-4.3 373.37-4.3L373.37-4.3Q375.47-4.3 376.64-5.2 377.82-6.1 377.82-7.5L377.82-7.5Q377.82-8.75 376.57-9.33 375.32-9.9 373.37-10.35L373.37-10.35Q371.32-10.85 369.37-11.65 367.42-12.45 366.14-13.75 364.87-15.05 364.87-17.1L364.87-17.1Q364.87-19.5 366.29-21.38 367.72-23.25 370.22-24.33 372.72-25.4 375.97-25.4L375.97-25.4Q380.37-25.4 382.92-23.3 385.47-21.2 385.37-17.6L385.37-17.6 379.22-17.6Q379.17-18.9 378.09-19.7 377.02-20.5 375.27-20.5L375.27-20.5Q373.47-20.5 372.34-19.73 371.22-18.95 371.22-17.8L371.22-17.8Q371.22-16.7 372.54-16.13 373.87-15.55 376.02-15.05L376.02-15.05Q378.37-14.5 380.24-13.7 382.12-12.9 383.24-11.63 384.37-10.35 384.37-8.3L384.37-8.3Q384.37-5.6 382.82-3.6 381.27-1.6 378.59-0.5 375.92 0.6 372.57 0.6ZM408.36 0L401.96 0 408.16-35 414.56-35 408.36 0ZM421.46 0L415.06 0 419.41-24.8 425.06-24.8 425.01-21.3Q426.46-23.2 428.46-24.3 430.46-25.4 433.01-25.4L433.01-25.4Q435.76-25.4 437.71-24.25 439.66-23.1 440.56-20.85L440.56-20.85Q442.21-22.95 444.56-24.18 446.91-25.4 449.56-25.4L449.56-25.4Q454.21-25.4 456.51-22.5 458.81-19.6 457.81-14L457.81-14 455.31 0 448.96 0 451.31-13.4Q451.86-16.6 450.81-18.3 449.76-20 447.36-20L447.36-20Q445.11-20 443.31-18.32 441.51-16.65 440.81-13.55L440.81-13.55 438.41 0 432.01 0 434.36-13.4Q434.96-16.6 433.93-18.3 432.91-20 430.46-20L430.46-20Q428.06-20 426.21-18.1 424.36-16.2 423.71-12.8L423.71-12.8 423.71-12.8 421.46 0ZM465.96 11L459.56 11 465.81-24.8 471.56-24.8 471.61-21.25Q473.11-23.1 475.23-24.25 477.36-25.4 480.31-25.4L480.31-25.4Q483.36-25.4 485.63-24 487.91-22.6 489.16-20.18 490.41-17.75 490.41-14.7L490.41-14.7Q490.41-11.5 489.33-8.72 488.26-5.95 486.31-3.85 484.36-1.75 481.73-0.58 479.11 0.6 476.06 0.6L476.06 0.6Q473.36 0.6 471.36-0.58 469.36-1.75 468.46-3.4L468.46-3.4 465.96 11ZM475.76-5L475.76-5Q478.06-5 479.88-6.13 481.71-7.25 482.76-9.2 483.81-11.15 483.81-13.6L483.81-13.6Q483.81-16.25 482.21-18.03 480.61-19.8 477.86-19.8L477.86-19.8Q475.51-19.8 473.68-18.65 471.86-17.5 470.81-15.5 469.76-13.5 469.76-11L469.76-11Q469.76-8.4 471.41-6.7 473.06-5 475.76-5ZM505.75 0.6L505.75 0.6Q502.5 0.6 500.05-0.85 497.6-2.3 496.23-4.78 494.85-7.25 494.85-10.45L494.85-10.45Q494.85-13.6 495.98-16.32 497.1-19.05 499.13-21.1 501.15-23.15 503.85-24.28 506.55-25.4 509.65-25.4L509.65-25.4Q512.95-25.4 515.43-24 517.9-22.6 519.3-20.15 520.7-17.7 520.7-14.45L520.7-14.45Q520.7-11.25 519.55-8.53 518.4-5.8 516.38-3.75 514.35-1.7 511.63-0.55 508.9 0.6 505.75 0.6ZM506.6-4.95L506.6-4.95Q508.75-4.95 510.45-6.15 512.15-7.35 513.15-9.43 514.15-11.5 514.15-14.1L514.15-14.1Q514.15-16.85 512.63-18.35 511.1-19.85 508.95-19.85L508.95-19.85Q506.85-19.85 505.13-18.65 503.4-17.45 502.4-15.38 501.4-13.3 501.4-10.7L501.4-10.7Q501.4-7.95 502.93-6.45 504.45-4.95 506.6-4.95ZM530.45 0L524.05 0 528.4-24.8 534.15-24.8 533.95-20.3Q535.7-22.6 538.28-24 540.85-25.4 544-25.4L544-25.4 542.8-18.65 541.05-18.65Q537.85-18.65 535.55-17.18 533.25-15.7 532.55-11.75L532.55-11.75 530.45 0ZM559.2 0L554.8 0Q551.4 0 549.37-1.4 547.35-2.8 547.35-6.25L547.35-6.25Q547.35-7.35 547.6-8.7L547.6-8.7 549.5-19.45 545.5-19.45 546.45-24.8 550.45-24.8 552.35-31.45 558.05-31.45 556.85-24.8 563.6-24.8 562.6-19.45 555.95-19.45 554-8.65Q553.9-8.15 553.9-7.65L553.9-7.65Q553.9-6.45 554.57-5.95 555.25-5.45 556.8-5.45L556.8-5.45 560.2-5.45 559.2 0ZM573.09 0.6L573.09 0.6Q568.89 0.6 566.94-1.33 564.99-3.25 564.99-5.95L564.99-5.95Q564.99-9.95 568.34-12.3 571.69-14.65 577.29-14.65L577.29-14.65 583.59-14.65 583.69-15.25Q583.74-15.55 583.77-15.88 583.79-16.2 583.79-16.45L583.79-16.45Q583.79-18.35 582.59-19.28 581.39-20.2 579.54-20.2L579.54-20.2Q577.59-20.2 575.97-19.28 574.34-18.35 573.64-16.55L573.64-16.55 567.39-16.55Q568.14-19.25 570.02-21.25 571.89-23.25 574.59-24.33 577.29-25.4 580.44-25.4L580.44-25.4Q585.04-25.4 587.67-23.35 590.29-21.3 590.29-17.45L590.29-17.45Q590.29-16.95 590.24-16.38 590.19-15.8 590.09-15.25L590.09-15.25 587.39 0 581.69 0 581.94-3.85Q580.49-1.95 578.32-0.68 576.14 0.6 573.09 0.6ZM575.44-4.4L575.44-4.4Q578.19-4.4 580.02-6.2 581.84-8 582.69-10.65L582.69-10.65 577.29-10.65Q574.79-10.65 573.34-9.65 571.89-8.65 571.89-6.9L571.89-6.9Q571.89-5.65 572.87-5.03 573.84-4.4 575.44-4.4ZM599.94 0L593.54 0 597.89-24.8 603.54-24.8 603.39-20.7Q604.94-22.85 607.29-24.13 609.64-25.4 612.54-25.4L612.54-25.4Q616.39-25.4 618.52-23.28 620.64-21.15 620.64-17.15L620.64-17.15Q620.64-15.75 620.34-14L620.34-14 617.84 0 611.44 0 613.84-13.4Q613.89-14 613.97-14.53 614.04-15.05 614.04-15.5L614.04-15.5Q614.04-20 609.59-20L609.59-20Q606.94-20 604.89-18.13 602.84-16.25 602.24-13L602.24-13 599.94 0ZM638.99 0L634.59 0Q631.19 0 629.16-1.4 627.14-2.8 627.14-6.25L627.14-6.25Q627.14-7.35 627.39-8.7L627.39-8.7 629.29-19.45 625.29-19.45 626.24-24.8 630.24-24.8 632.14-31.45 637.84-31.45 636.64-24.8 643.39-24.8 642.39-19.45 635.74-19.45 633.79-8.65Q633.69-8.15 633.69-7.65L633.69-7.65Q633.69-6.45 634.36-5.95 635.04-5.45 636.59-5.45L636.59-5.45 639.99-5.45 638.99 0Z" opacity="1" transform="matrix(1,0,0,1,0,0)" fill="#ffffff" class="slogan-text-1" data-fill-palette-color="secondary" id="text-1"></path></svg></g></svg></g></svg></g></svg></g></svg></g></svg></g></svg></g><path d="M169.924 70.99L169.924 12.404 392.315 12.404 392.315 234.796 169.924 234.796 169.924 176.21 175.403 176.21 175.403 229.316 386.836 229.316 386.836 17.884 175.403 17.884 175.403 70.99Z" fill="#ffffff" stroke="transparent" data-fill-palette-color="tertiary"></path></svg></g><defs></defs></svg><rect width="395.52" height="247.2" fill="none" stroke="none" visibility="hidden"></rect></g></svg></g></svg>